<?xml version="1.0" standalone="no"?>
<!DOCTYPE svg PUBLIC "-//W3C//DTD SVG 20010904//EN"
 "http://www.w3.org/TR/2001/REC-SVG-20010904/DTD/svg10.dtd">
<svg version="1.0" xmlns="http://www.w3.org/2000/svg"
 width="260.000000pt" height="260.000000pt" viewBox="0 0 260.000000 260.000000"
 preserveAspectRatio="xMidYMid meet">
<metadata>
Created by potrace 1.14, written by Peter Selinger 2001-2017
</metadata>
<g transform="translate(0.000000,260.000000) scale(0.100000,-0.100000)"
fill="#000000" stroke="none">
<path d="M697 2095 c-120 -33 -247 -129 -296 -222 l-20 -38 -1 123 0 122 -35
0 -35 0 0 -665 0 -665 35 0 35 0 1 393 c0 215 2 416 4 445 13 180 106 338 238
407 54 28 165 55 201 50 12 -2 47 -6 80 -10 32 -3 66 -10 75 -15 9 -4 36 -16
61 -26 104 -44 200 -183 220 -320 5 -38 10 -261 10 -496 l0 -428 35 0 35 0 1
408 c0 453 2 503 25 582 52 182 213 300 413 301 230 2 372 -106 424 -321 24
-100 26 -126 26 -562 l1 -408 36 0 35 0 -4 453 c-2 248 -6 468 -10 488 -20
106 -75 223 -136 286 -48 50 -144 102 -218 119 -62 13 -197 16 -256 4 -77 -15
-169 -57 -224 -101 -50 -41 -115 -122 -133 -167 l-13 -34 -39 70 c-64 115
-161 191 -289 225 -71 18 -220 20 -282 2z"/>
</g>
</svg>
